<?xml version="1.0" encoding="UTF-8"?>
<svg width="810px" height="120px" viewBox="0 0 810 120" version="1.1" xmlns="http://www.w3.org/2000/svg" xmlns:xlink="http://www.w3.org/1999/xlink">
    <!-- Generator: Sketch 48.2 (47327) - http://www.bohemiancoding.com/sketch -->
    <title>Pentagon Capital</title>
    <desc>Blockchain solutions for the financial industry</desc>
    <defs></defs>
    <g id="Page-1" stroke="none" stroke-width="1" fill="none" fill-rule="evenodd">
        <g id="PENTAGON">
            <path d="M60,9.43806429 L8.71024264,48.6199524 L28.450263,112.5 L91.549737,112.5 L111.289757,48.6199524 L60,9.43806429 Z" id="Polygon" stroke="#000000" stroke-width="15" transform="translate(60.000000, 60.000000) rotate(180.000000) translate(-60.000000, -60.000000) "></path>
            <path d="M183.789062,54.078125 L187.363281,54.078125 C195.097695,54.078125 200.253893,53.2382896 202.832031,51.5585938 C205.410169,49.8788979 206.699219,46.9101775 206.699219,42.6523438 C206.699219,38.0820084 205.322279,34.8593844 202.568359,32.984375 C199.814439,31.1093656 194.746131,30.171875 187.363281,30.171875 L183.789062,30.171875 L183.789062,54.078125 Z M182.910156,65.5039062 L182.910156,104 L169.84375,104 L169.84375,18.21875 L190.9375,18.21875 C197.187531,18.21875 201.787095,18.5605435 204.736328,19.2441406 C207.685562,19.9277378 210.253895,21.0507734 212.441406,22.6132812 C215.136732,24.6054787 217.246086,27.2909987 218.769531,30.6699219 C220.292976,34.048845 221.054688,37.7695109 221.054688,41.8320312 C221.054688,45.8945516 220.292976,49.6445141 218.769531,53.0820312 C217.246086,56.5195484 215.136732,59.214834 212.441406,61.1679688 C210.253895,62.7304766 207.685562,63.8437467 204.736328,64.5078125 C201.787095,65.1718783 197.187531,65.5039062 190.9375,65.5039062 L182.910156,65.5039062 Z M233.710938,104 L233.710938,18.21875 L281.582031,18.21875 L281.582031,30.0546875 L247.65625,30.0546875 L247.65625,51.5585938 L281.582031,51.5585938 L281.582031,63.8046875 L247.65625,63.8046875 L247.65625,91.5195312 L281.582031,91.5195312 L281.582031,104 L233.710938,104 Z M297.578125,104 L297.578125,14.8203125 L352.070312,67.2617188 C353.554695,68.7461012 355.058586,70.3281166 356.582031,72.0078125 C358.105476,73.6875084 359.707023,75.5820207 361.386719,77.6914062 L361.386719,18.21875 L374.277344,18.21875 L374.277344,107.339844 L318.671875,53.9609375 C317.187493,52.5156178 315.75196,50.9921955 314.365234,49.390625 C312.978509,47.7890545 311.660163,46.1093838 310.410156,44.3515625 L310.410156,104 L297.578125,104 Z M421.679688,30.0546875 L421.679688,104 L407.734375,104 L407.734375,30.0546875 L384.941406,30.0546875 L384.941406,18.21875 L444.355469,18.21875 L444.355469,30.0546875 L421.679688,30.0546875 Z M473.125,70.3085938 L497.03125,70.3085938 L488.242188,50.7382812 C487.734372,49.488275 487.207034,48.0527425 486.660156,46.4316406 C486.113279,44.8105388 485.566409,43.0039162 485.019531,41.0117188 C484.550779,42.8867281 484.052737,44.6347575 483.525391,46.2558594 C482.998044,47.8769612 482.46094,49.3710869 481.914062,50.7382812 L473.125,70.3085938 Z M511.679687,104 L501.953125,81.9101562 L467.96875,81.9101562 L458.007812,104 L443.359375,104 L484.902344,14.8203125 L526.386719,104 L511.679687,104 Z M581.992188,60.0546875 L615.976562,60.0546875 C615.976562,60.6406279 615.996094,61.4609322 616.035156,62.515625 C616.152344,65.2890764 616.210938,67.1640576 616.210938,68.140625 C616.210938,80.2109979 612.753941,89.5859041 605.839844,96.265625 C598.925747,102.945346 589.17975,106.285156 576.601562,106.285156 C569.570277,106.285156 563.300809,105.25001 557.792969,103.179688 C552.285129,101.109365 547.460958,97.9843959 543.320312,93.8046875 C539.257792,89.6640418 536.142589,84.8008092 533.974609,79.2148438 C531.80663,73.6288783 530.722656,67.6523756 530.722656,61.2851562 C530.722656,54.8007488 531.826161,48.8242461 534.033203,43.3554688 C536.240245,37.8866914 539.511697,33.0625209 543.847656,28.8828125 C548.027365,24.7812295 552.929659,21.6562607 558.554688,19.5078125 C564.179716,17.3593643 570.19528,16.2851562 576.601562,16.2851562 C583.359409,16.2851562 589.40427,17.5156127 594.736328,19.9765625 C600.068386,22.4375123 604.824198,26.2070059 609.003906,31.2851562 L598.808594,38.9609375 C595.917954,35.6015457 592.656268,33.1015707 589.023438,31.4609375 C585.390607,29.8203043 581.328147,29 576.835938,29 C567.539016,29 559.951201,31.9784858 554.072266,37.9355469 C548.19333,43.8926079 545.253906,51.6366711 545.253906,61.1679688 C545.253906,70.8555172 548.19333,78.7167667 554.072266,84.7519531 C559.951201,90.7871396 567.578078,93.8046875 576.953125,93.8046875 C584.921915,93.8046875 591.191383,91.9492373 595.761719,88.2382812 C600.332054,84.5273252 602.617188,79.468782 602.617188,73.0625 L602.617188,71.8320312 L581.992188,71.8320312 L581.992188,60.0546875 Z M704.277344,61.2851562 C704.277344,56.9491971 703.486336,52.8281445 701.904297,48.921875 C700.322258,45.0156055 698.04689,41.5390777 695.078125,38.4921875 C692.187486,35.48436 688.83791,33.16993 685.029297,31.5488281 C681.220684,29.9277263 677.207052,29.1171875 672.988281,29.1171875 C668.76951,29.1171875 664.755878,29.9179607 660.947266,31.5195312 C657.138653,33.1211018 653.750015,35.4452973 650.78125,38.4921875 C647.812485,41.500015 645.546883,44.9570117 643.984375,48.8632812 C642.421867,52.7695508 641.640625,56.9101344 641.640625,61.2851562 C641.640625,65.6211154 642.421867,69.7226369 643.984375,73.5898438 C645.546883,77.4570506 647.812485,80.9140473 650.78125,83.9609375 C653.750015,87.0078277 657.128887,89.3320232 660.917969,90.9335938 C664.70705,92.5351643 668.730447,93.3359375 672.988281,93.3359375 C677.16799,93.3359375 681.142559,92.5351643 684.912109,90.9335938 C688.681659,89.3320232 692.070297,87.0078277 695.078125,83.9609375 C698.04689,80.9140473 700.322258,77.4472851 701.904297,73.5605469 C703.486336,69.6738087 704.277344,65.5820527 704.277344,61.2851562 Z M718.808594,61.2851562 C718.808594,67.3789367 717.666027,73.1405979 715.380859,78.5703125 C713.095692,84.0000271 709.765647,88.8437287 705.390625,93.1015625 C700.97654,97.3593963 695.996121,100.621082 690.449219,102.886719 C684.902316,105.152355 679.082062,106.285156 672.988281,106.285156 C666.816375,106.285156 660.927762,105.14259 655.322266,102.857422 C649.716769,100.572254 644.765646,97.3203336 640.46875,93.1015625 C636.093728,88.8437287 632.773449,84.0195582 630.507812,78.6289062 C628.242176,73.2382543 627.109375,67.4570621 627.109375,61.2851562 C627.109375,55.1523131 628.242176,49.3711209 630.507812,43.9414062 C632.773449,38.5116916 636.093728,33.648459 640.46875,29.3515625 C644.843772,25.0937287 649.80466,21.8515736 655.351562,19.625 C660.898465,17.3984264 666.777313,16.2851562 672.988281,16.2851562 C679.160187,16.2851562 685.009738,17.3984264 690.537109,19.625 C696.064481,21.8515736 701.015603,25.0937287 705.390625,29.3515625 C709.765647,33.6875217 713.095692,38.5800509 715.380859,44.0292969 C717.666027,49.4785429 718.808594,55.2304385 718.808594,61.2851562 Z M734.804688,104 L734.804688,14.8203125 L789.296875,67.2617188 C790.781257,68.7461012 792.285149,70.3281166 793.808594,72.0078125 C795.332039,73.6875084 796.933585,75.5820207 798.613281,77.6914062 L798.613281,18.21875 L811.503906,18.21875 L811.503906,107.339844 L755.898438,53.9609375 C754.414055,52.5156178 752.978523,50.9921955 751.591797,49.390625 C750.205071,47.7890545 748.886725,46.1093838 747.636719,44.3515625 L747.636719,104 L734.804688,104 Z" fill="#000000"></path>
        </g>
    </g>
</svg>